<mxfile host="app.diagrams.net" modified="2023-08-02T11:11:54.128Z" agent="Mozilla/5.0 (Windows NT 10.0; Win64; x64) AppleWebKit/537.36 (KHTML, like Gecko) Chrome/115.0.0.0 Safari/537.36" etag="6wWgBRaZ4tEg8rGQ4zw7" version="21.6.6" type="github" pages="2">
  <diagram id="PIDMx6QlFMbu98ZCILUm" name="flowchart_gp">
    <mxGraphModel dx="1194" dy="730" grid="1" gridSize="10" guides="1" tooltips="1" connect="1" arrows="1" fold="1" page="1" pageScale="1" pageWidth="850" pageHeight="1100" math="0" shadow="0">
      <root>
        <mxCell id="ZV3xGOG4E9vZ0-3P1s4v-0" />
        <mxCell id="ZV3xGOG4E9vZ0-3P1s4v-1" parent="ZV3xGOG4E9vZ0-3P1s4v-0" />
        <mxCell id="sR-EdJqk93c482fk9e1r-0" value="" style="edgeStyle=orthogonalEdgeStyle;rounded=0;orthogonalLoop=1;jettySize=auto;html=1;" parent="ZV3xGOG4E9vZ0-3P1s4v-1" source="sR-EdJqk93c482fk9e1r-1" target="sR-EdJqk93c482fk9e1r-3" edge="1">
          <mxGeometry relative="1" as="geometry" />
        </mxCell>
        <mxCell id="sR-EdJqk93c482fk9e1r-1" value="Setup the UART transport layer" style="rounded=1;whiteSpace=wrap;html=1;" parent="ZV3xGOG4E9vZ0-3P1s4v-1" vertex="1">
          <mxGeometry x="270" y="120" width="120" height="60" as="geometry" />
        </mxCell>
        <mxCell id="sR-EdJqk93c482fk9e1r-2" style="edgeStyle=orthogonalEdgeStyle;rounded=0;orthogonalLoop=1;jettySize=auto;html=1;entryX=0.5;entryY=0;entryDx=0;entryDy=0;" parent="ZV3xGOG4E9vZ0-3P1s4v-1" source="sR-EdJqk93c482fk9e1r-3" edge="1">
          <mxGeometry relative="1" as="geometry">
            <mxPoint x="330" y="340" as="targetPoint" />
          </mxGeometry>
        </mxCell>
        <mxCell id="sR-EdJqk93c482fk9e1r-3" value="Initialize the connection" style="rounded=1;whiteSpace=wrap;html=1;" parent="ZV3xGOG4E9vZ0-3P1s4v-1" vertex="1">
          <mxGeometry x="270" y="230" width="120" height="60" as="geometry" />
        </mxCell>
        <mxCell id="sR-EdJqk93c482fk9e1r-18" value="" style="edgeStyle=orthogonalEdgeStyle;rounded=0;orthogonalLoop=1;jettySize=auto;html=1;" parent="ZV3xGOG4E9vZ0-3P1s4v-1" source="sR-EdJqk93c482fk9e1r-8" target="sR-EdJqk93c482fk9e1r-9" edge="1">
          <mxGeometry relative="1" as="geometry" />
        </mxCell>
        <mxCell id="sR-EdJqk93c482fk9e1r-21" style="edgeStyle=orthogonalEdgeStyle;rounded=0;orthogonalLoop=1;jettySize=auto;html=1;exitX=1;exitY=0.5;exitDx=0;exitDy=0;exitPerimeter=0;entryX=0.5;entryY=0;entryDx=0;entryDy=0;" parent="ZV3xGOG4E9vZ0-3P1s4v-1" source="sR-EdJqk93c482fk9e1r-8" target="sR-EdJqk93c482fk9e1r-20" edge="1">
          <mxGeometry relative="1" as="geometry" />
        </mxCell>
        <mxCell id="sR-EdJqk93c482fk9e1r-8" value="Did connection open?" style="strokeWidth=2;html=1;shape=mxgraph.flowchart.decision;whiteSpace=wrap;" parent="ZV3xGOG4E9vZ0-3P1s4v-1" vertex="1">
          <mxGeometry x="272.5" y="690" width="115" height="120" as="geometry" />
        </mxCell>
        <mxCell id="sR-EdJqk93c482fk9e1r-22" value="" style="edgeStyle=orthogonalEdgeStyle;rounded=0;orthogonalLoop=1;jettySize=auto;html=1;" parent="ZV3xGOG4E9vZ0-3P1s4v-1" source="sR-EdJqk93c482fk9e1r-9" target="sR-EdJqk93c482fk9e1r-10" edge="1">
          <mxGeometry relative="1" as="geometry" />
        </mxCell>
        <mxCell id="sR-EdJqk93c482fk9e1r-9" value="Send/ Receive datagram" style="rounded=1;whiteSpace=wrap;html=1;" parent="ZV3xGOG4E9vZ0-3P1s4v-1" vertex="1">
          <mxGeometry x="270" y="840" width="120" height="60" as="geometry" />
        </mxCell>
        <mxCell id="sR-EdJqk93c482fk9e1r-23" value="" style="edgeStyle=orthogonalEdgeStyle;rounded=0;orthogonalLoop=1;jettySize=auto;html=1;" parent="ZV3xGOG4E9vZ0-3P1s4v-1" source="sR-EdJqk93c482fk9e1r-10" target="sR-EdJqk93c482fk9e1r-11" edge="1">
          <mxGeometry relative="1" as="geometry" />
        </mxCell>
        <mxCell id="zAxebz0YlXqXnczfZMwz-1" style="edgeStyle=orthogonalEdgeStyle;rounded=0;orthogonalLoop=1;jettySize=auto;html=1;entryX=0.5;entryY=0;entryDx=0;entryDy=0;" parent="ZV3xGOG4E9vZ0-3P1s4v-1" source="sR-EdJqk93c482fk9e1r-10" target="zAxebz0YlXqXnczfZMwz-0" edge="1">
          <mxGeometry relative="1" as="geometry">
            <mxPoint x="560" y="1000" as="targetPoint" />
            <Array as="points">
              <mxPoint x="610" y="1015" />
            </Array>
          </mxGeometry>
        </mxCell>
        <mxCell id="sR-EdJqk93c482fk9e1r-10" value="Problem in&amp;nbsp; sending/receiveing?" style="strokeWidth=2;html=1;shape=mxgraph.flowchart.decision;whiteSpace=wrap;" parent="ZV3xGOG4E9vZ0-3P1s4v-1" vertex="1">
          <mxGeometry x="260" y="950" width="140" height="130" as="geometry" />
        </mxCell>
        <mxCell id="VVgyM-o23r_cA4n3m2bH-14" value="" style="edgeStyle=orthogonalEdgeStyle;rounded=0;orthogonalLoop=1;jettySize=auto;html=1;" parent="ZV3xGOG4E9vZ0-3P1s4v-1" source="sR-EdJqk93c482fk9e1r-11" target="VVgyM-o23r_cA4n3m2bH-10" edge="1">
          <mxGeometry relative="1" as="geometry" />
        </mxCell>
        <mxCell id="sR-EdJqk93c482fk9e1r-11" value="Handle datagram/&lt;br&gt;call handler" style="rounded=1;whiteSpace=wrap;html=1;" parent="ZV3xGOG4E9vZ0-3P1s4v-1" vertex="1">
          <mxGeometry x="270" y="1130" width="120" height="60" as="geometry" />
        </mxCell>
        <mxCell id="sR-EdJqk93c482fk9e1r-12" value="Close connection" style="rounded=1;whiteSpace=wrap;html=1;" parent="ZV3xGOG4E9vZ0-3P1s4v-1" vertex="1">
          <mxGeometry x="270" y="1620" width="120" height="60" as="geometry" />
        </mxCell>
        <mxCell id="sR-EdJqk93c482fk9e1r-17" value="" style="edgeStyle=orthogonalEdgeStyle;rounded=0;orthogonalLoop=1;jettySize=auto;html=1;" parent="ZV3xGOG4E9vZ0-3P1s4v-1" source="sR-EdJqk93c482fk9e1r-16" target="sR-EdJqk93c482fk9e1r-1" edge="1">
          <mxGeometry relative="1" as="geometry" />
        </mxCell>
        <mxCell id="sR-EdJqk93c482fk9e1r-16" value="start" style="rounded=1;whiteSpace=wrap;html=1;" parent="ZV3xGOG4E9vZ0-3P1s4v-1" vertex="1">
          <mxGeometry x="270" y="20" width="120" height="60" as="geometry" />
        </mxCell>
        <mxCell id="sR-EdJqk93c482fk9e1r-19" value="yes" style="text;html=1;align=center;verticalAlign=middle;resizable=0;points=[];autosize=1;strokeColor=none;fillColor=none;" parent="ZV3xGOG4E9vZ0-3P1s4v-1" vertex="1">
          <mxGeometry x="355" y="790" width="30" height="20" as="geometry" />
        </mxCell>
        <mxCell id="sR-EdJqk93c482fk9e1r-20" value="return error status. Print error on the terminal" style="rounded=1;whiteSpace=wrap;html=1;" parent="ZV3xGOG4E9vZ0-3P1s4v-1" vertex="1">
          <mxGeometry x="550" y="780" width="120" height="60" as="geometry" />
        </mxCell>
        <mxCell id="zAxebz0YlXqXnczfZMwz-0" value="return error status. Print error on the terminal" style="rounded=1;whiteSpace=wrap;html=1;" parent="ZV3xGOG4E9vZ0-3P1s4v-1" vertex="1">
          <mxGeometry x="520" y="1030" width="180" height="60" as="geometry" />
        </mxCell>
        <mxCell id="zAxebz0YlXqXnczfZMwz-2" value="yes" style="text;html=1;align=center;verticalAlign=middle;resizable=0;points=[];autosize=1;strokeColor=none;fillColor=none;" parent="ZV3xGOG4E9vZ0-3P1s4v-1" vertex="1">
          <mxGeometry x="510" y="980" width="40" height="30" as="geometry" />
        </mxCell>
        <mxCell id="zAxebz0YlXqXnczfZMwz-3" value="No" style="text;html=1;align=center;verticalAlign=middle;resizable=0;points=[];autosize=1;strokeColor=none;fillColor=none;" parent="ZV3xGOG4E9vZ0-3P1s4v-1" vertex="1">
          <mxGeometry x="345" y="1055" width="40" height="30" as="geometry" />
        </mxCell>
        <mxCell id="VVgyM-o23r_cA4n3m2bH-2" value="" style="edgeStyle=orthogonalEdgeStyle;rounded=0;orthogonalLoop=1;jettySize=auto;html=1;" parent="ZV3xGOG4E9vZ0-3P1s4v-1" source="VVgyM-o23r_cA4n3m2bH-0" target="VVgyM-o23r_cA4n3m2bH-1" edge="1">
          <mxGeometry relative="1" as="geometry" />
        </mxCell>
        <mxCell id="VVgyM-o23r_cA4n3m2bH-0" value="Initialize the OS utils callback" style="rounded=1;whiteSpace=wrap;html=1;" parent="ZV3xGOG4E9vZ0-3P1s4v-1" vertex="1">
          <mxGeometry x="270" y="340" width="120" height="60" as="geometry" />
        </mxCell>
        <mxCell id="VVgyM-o23r_cA4n3m2bH-5" value="" style="edgeStyle=orthogonalEdgeStyle;rounded=0;orthogonalLoop=1;jettySize=auto;html=1;" parent="ZV3xGOG4E9vZ0-3P1s4v-1" source="VVgyM-o23r_cA4n3m2bH-1" target="VVgyM-o23r_cA4n3m2bH-3" edge="1">
          <mxGeometry relative="1" as="geometry" />
        </mxCell>
        <mxCell id="VVgyM-o23r_cA4n3m2bH-1" value="Initialize the Tasks" style="rounded=1;whiteSpace=wrap;html=1;" parent="ZV3xGOG4E9vZ0-3P1s4v-1" vertex="1">
          <mxGeometry x="270" y="450" width="120" height="60" as="geometry" />
        </mxCell>
        <mxCell id="VVgyM-o23r_cA4n3m2bH-4" value="" style="edgeStyle=orthogonalEdgeStyle;rounded=0;orthogonalLoop=1;jettySize=auto;html=1;" parent="ZV3xGOG4E9vZ0-3P1s4v-1" source="VVgyM-o23r_cA4n3m2bH-3" target="sR-EdJqk93c482fk9e1r-8" edge="1">
          <mxGeometry relative="1" as="geometry" />
        </mxCell>
        <mxCell id="VVgyM-o23r_cA4n3m2bH-3" value="Open the connection" style="rounded=1;whiteSpace=wrap;html=1;" parent="ZV3xGOG4E9vZ0-3P1s4v-1" vertex="1">
          <mxGeometry x="270" y="570" width="120" height="60" as="geometry" />
        </mxCell>
        <mxCell id="VVgyM-o23r_cA4n3m2bH-6" value="No" style="text;html=1;align=center;verticalAlign=middle;resizable=0;points=[];autosize=1;strokeColor=none;fillColor=none;" parent="ZV3xGOG4E9vZ0-3P1s4v-1" vertex="1">
          <mxGeometry x="510" y="708" width="40" height="30" as="geometry" />
        </mxCell>
        <mxCell id="VVgyM-o23r_cA4n3m2bH-9" style="edgeStyle=orthogonalEdgeStyle;rounded=0;orthogonalLoop=1;jettySize=auto;html=1;entryX=0.5;entryY=0;entryDx=0;entryDy=0;" parent="ZV3xGOG4E9vZ0-3P1s4v-1" source="VVgyM-o23r_cA4n3m2bH-10" target="VVgyM-o23r_cA4n3m2bH-11" edge="1">
          <mxGeometry relative="1" as="geometry">
            <mxPoint x="560" y="1280" as="targetPoint" />
            <Array as="points">
              <mxPoint x="610" y="1295" />
            </Array>
          </mxGeometry>
        </mxCell>
        <mxCell id="VVgyM-o23r_cA4n3m2bH-21" value="" style="edgeStyle=orthogonalEdgeStyle;rounded=0;orthogonalLoop=1;jettySize=auto;html=1;" parent="ZV3xGOG4E9vZ0-3P1s4v-1" source="VVgyM-o23r_cA4n3m2bH-10" target="VVgyM-o23r_cA4n3m2bH-17" edge="1">
          <mxGeometry relative="1" as="geometry" />
        </mxCell>
        <mxCell id="VVgyM-o23r_cA4n3m2bH-10" value="datagram handled?" style="strokeWidth=2;html=1;shape=mxgraph.flowchart.decision;whiteSpace=wrap;" parent="ZV3xGOG4E9vZ0-3P1s4v-1" vertex="1">
          <mxGeometry x="260" y="1230" width="140" height="130" as="geometry" />
        </mxCell>
        <mxCell id="VVgyM-o23r_cA4n3m2bH-11" value="return error status. Print error on the terminal" style="rounded=1;whiteSpace=wrap;html=1;" parent="ZV3xGOG4E9vZ0-3P1s4v-1" vertex="1">
          <mxGeometry x="520" y="1310" width="180" height="60" as="geometry" />
        </mxCell>
        <mxCell id="VVgyM-o23r_cA4n3m2bH-12" value="No" style="text;html=1;align=center;verticalAlign=middle;resizable=0;points=[];autosize=1;strokeColor=none;fillColor=none;" parent="ZV3xGOG4E9vZ0-3P1s4v-1" vertex="1">
          <mxGeometry x="510" y="1260" width="40" height="30" as="geometry" />
        </mxCell>
        <mxCell id="VVgyM-o23r_cA4n3m2bH-13" value="yes" style="text;html=1;align=center;verticalAlign=middle;resizable=0;points=[];autosize=1;strokeColor=none;fillColor=none;" parent="ZV3xGOG4E9vZ0-3P1s4v-1" vertex="1">
          <mxGeometry x="345" y="1335" width="40" height="30" as="geometry" />
        </mxCell>
        <mxCell id="VVgyM-o23r_cA4n3m2bH-22" style="edgeStyle=orthogonalEdgeStyle;rounded=0;orthogonalLoop=1;jettySize=auto;html=1;" parent="ZV3xGOG4E9vZ0-3P1s4v-1" source="VVgyM-o23r_cA4n3m2bH-17" edge="1">
          <mxGeometry relative="1" as="geometry">
            <mxPoint x="330" y="820" as="targetPoint" />
            <Array as="points">
              <mxPoint x="171" y="1485" />
            </Array>
          </mxGeometry>
        </mxCell>
        <mxCell id="VVgyM-o23r_cA4n3m2bH-24" value="" style="edgeStyle=orthogonalEdgeStyle;rounded=0;orthogonalLoop=1;jettySize=auto;html=1;" parent="ZV3xGOG4E9vZ0-3P1s4v-1" source="VVgyM-o23r_cA4n3m2bH-17" target="sR-EdJqk93c482fk9e1r-12" edge="1">
          <mxGeometry relative="1" as="geometry" />
        </mxCell>
        <mxCell id="VVgyM-o23r_cA4n3m2bH-17" value="wait for more &lt;br&gt;datagrams?" style="strokeWidth=2;html=1;shape=mxgraph.flowchart.decision;whiteSpace=wrap;" parent="ZV3xGOG4E9vZ0-3P1s4v-1" vertex="1">
          <mxGeometry x="260" y="1420" width="140" height="130" as="geometry" />
        </mxCell>
        <mxCell id="VVgyM-o23r_cA4n3m2bH-23" value="&lt;span style=&quot;color: rgb(0, 0, 0); font-family: Helvetica; font-size: 12px; font-style: normal; font-variant-ligatures: normal; font-variant-caps: normal; font-weight: 400; letter-spacing: normal; orphans: 2; text-align: center; text-indent: 0px; text-transform: none; widows: 2; word-spacing: 0px; -webkit-text-stroke-width: 0px; background-color: rgb(251, 251, 251); text-decoration-thickness: initial; text-decoration-style: initial; text-decoration-color: initial; float: none; display: inline !important;&quot;&gt;yes&lt;/span&gt;" style="text;whiteSpace=wrap;html=1;" parent="ZV3xGOG4E9vZ0-3P1s4v-1" vertex="1">
          <mxGeometry x="210" y="1460" width="50" height="40" as="geometry" />
        </mxCell>
        <mxCell id="VVgyM-o23r_cA4n3m2bH-25" value="No" style="text;html=1;align=center;verticalAlign=middle;resizable=0;points=[];autosize=1;strokeColor=none;fillColor=none;" parent="ZV3xGOG4E9vZ0-3P1s4v-1" vertex="1">
          <mxGeometry x="330" y="1558" width="40" height="30" as="geometry" />
        </mxCell>
      </root>
    </mxGraphModel>
  </diagram>
  <diagram id="Ehi2pBBZmqW3ISHJ3c43" name="Page-3">
    <mxGraphModel dx="1194" dy="730" grid="1" gridSize="10" guides="1" tooltips="1" connect="1" arrows="1" fold="1" page="1" pageScale="1" pageWidth="850" pageHeight="1100" math="0" shadow="0">
      <root>
        <mxCell id="0" />
        <mxCell id="1" parent="0" />
      </root>
    </mxGraphModel>
  </diagram>
</mxfile>
